<svg width="450" height="450" viewBox="0 0 450 450" fill="none" xmlns="http://www.w3.org/2000/svg">
<path d="M254.585 270.573L225.341 270.548L212.596 304.709L235.483 304.729L224.849 347.382L263.467 291.447L246.514 291.432L254.585 270.573Z" fill="url(#paint0_linear_136_47)"/>
<g opacity="0.6" filter="url(#filter0_f_136_47)">
<rect x="132.708" y="256.699" width="214.265" height="31.046" rx="15.523" fill="#767676" fill-opacity="0.4"/>
</g>
<g filter="url(#filter2_i_136_47)">
<path d="M333.476 193.567C334.159 189.71 334.517 185.742 334.52 181.692C334.554 143.801 303.558 113.056 265.29 113.023C236.841 112.998 212.381 129.952 201.688 154.222C193.05 146.825 181.836 142.353 169.577 142.342C142.242 142.318 120.064 164.483 120.04 191.848C120.038 193.372 120.106 194.88 120.239 196.369C107.086 202.734 98.021 216.105 98.0074 231.578C97.9883 253.23 115.7 270.798 137.568 270.818L324.543 270.982C346.411 271.002 364.153 253.465 364.172 231.813C364.189 213.178 351.072 197.568 333.476 193.567Z" fill="url(#paint1_linear_136_47)"/>
</g>
<defs>
<filter id="filter0_f_136_47" x="54.7075" y="178.699" width="370.265" height="187.046" filterUnits="userSpaceOnUse" color-interpolation-filters="sRGB">
<feFlood flood-opacity="0" result="BackgroundImageFix"/>
<feBlend mode="normal" in="SourceGraphic" in2="BackgroundImageFix" result="shape"/>
<feGaussianBlur stdDeviation="39" result="effect1_foregroundBlur_136_47"/>
</filter>
<filter id="filter2_i_136_47" x="98.0074" y="113.023" width="266.165" height="167.96" filterUnits="userSpaceOnUse" color-interpolation-filters="sRGB">
<feFlood flood-opacity="0" result="BackgroundImageFix"/>
<feBlend mode="normal" in="SourceGraphic" in2="BackgroundImageFix" result="shape"/>
<feColorMatrix in="SourceAlpha" type="matrix" values="0 0 0 0 0 0 0 0 0 0 0 0 0 0 0 0 0 0 127 0" result="hardAlpha"/>
<feOffset dy="11"/>
<feGaussianBlur stdDeviation="5"/>
<feComposite in2="hardAlpha" operator="arithmetic" k2="-1" k3="1"/>
<feColorMatrix type="matrix" values="0 0 0 0 1 0 0 0 0 1 0 0 0 0 1 0 0 0 1 0"/>
<feBlend mode="normal" in2="shape" result="effect1_innerShadow_136_47"/>
</filter>
<linearGradient id="paint0_linear_136_47" x1="231.708" y1="339.987" x2="281.349" y2="271.554" gradientUnits="userSpaceOnUse">
<stop stop-color="#FF9900"/>
<stop offset="1" stop-color="#FFEE94"/>
</linearGradient>
<linearGradient id="paint1_linear_136_47" x1="114.914" y1="256.699" x2="383.487" y2="56.1005" gradientUnits="userSpaceOnUse">
<stop stop-color="white"/>
<stop offset="1" stop-color="#BBBBBB" stop-opacity="0.58"/>
</linearGradient>
</defs>
</svg>
