<svg width="32" height="32" viewBox="0 0 32 32" fill="none" xmlns="http://www.w3.org/2000/svg">
<path fill-rule="evenodd" clip-rule="evenodd" d="M16 26.5C20.1867 26.5 23 23.6811 23 20.8638C23 19.6806 22.5711 18.1638 21.7767 16.4363C20.9966 14.7398 19.9378 12.9967 18.8493 11.4055C17.8053 9.87938 16.7575 8.52709 15.95 7.53368C15.1575 8.45509 14.1442 9.70239 13.1345 11.1343C10.9006 14.3024 9 17.9416 9 20.8638C9 23.6811 11.8133 26.5 16 26.5ZM14.6448 5.98563C12.1312 8.87097 7 15.427 7 20.8638C7 25.0812 11.0294 28.5 16 28.5C20.9706 28.5 25 25.0812 25 20.8638C25 15.9867 19.7979 9.06699 17.3037 6.02955C16.5172 5.07177 16 4.5 16 4.5C16 4.5 15.4601 5.0497 14.6448 5.98563Z" fill="white"/>
<path d="M16.3523 21.8636V21.4034C16.3523 21.0852 16.4176 20.794 16.5483 20.5298C16.6818 20.2628 16.875 20.0497 17.1278 19.8906C17.3835 19.7287 17.6932 19.6477 18.0568 19.6477C18.4261 19.6477 18.7358 19.7287 18.9858 19.8906C19.2358 20.0497 19.4247 20.2628 19.5526 20.5298C19.6804 20.794 19.7443 21.0852 19.7443 21.4034V21.8636C19.7443 22.1818 19.679 22.4744 19.5483 22.7415C19.4205 23.0057 19.2301 23.2187 18.9773 23.3807C18.7273 23.5398 18.4205 23.6193 18.0568 23.6193C17.6875 23.6193 17.3764 23.5398 17.1236 23.3807C16.8707 23.2187 16.679 23.0057 16.5483 22.7415C16.4176 22.4744 16.3523 22.1818 16.3523 21.8636ZM17.2216 21.4034V21.8636C17.2216 22.1278 17.2841 22.3651 17.4091 22.5753C17.5341 22.7827 17.75 22.8864 18.0568 22.8864C18.3551 22.8864 18.5653 22.7827 18.6875 22.5753C18.8125 22.3651 18.875 22.1278 18.875 21.8636V21.4034C18.875 21.1392 18.8153 20.9034 18.696 20.696C18.5767 20.4858 18.3636 20.3807 18.0568 20.3807C17.7585 20.3807 17.544 20.4858 17.4134 20.696C17.2855 20.9034 17.2216 21.1392 17.2216 21.4034ZM12.0057 16.8693V16.4091C12.0057 16.0909 12.071 15.7997 12.2017 15.5355C12.3352 15.2685 12.5284 15.0554 12.7812 14.8963C13.0369 14.7344 13.3466 14.6534 13.7102 14.6534C14.0795 14.6534 14.3892 14.7344 14.6392 14.8963C14.8892 15.0554 15.0781 15.2685 15.206 15.5355C15.3338 15.7997 15.3977 16.0909 15.3977 16.4091V16.8693C15.3977 17.1875 15.3324 17.4801 15.2017 17.7472C15.0739 18.0114 14.8835 18.2244 14.6307 18.3864C14.3807 18.5455 14.0739 18.625 13.7102 18.625C13.3409 18.625 13.0298 18.5455 12.777 18.3864C12.5241 18.2244 12.3324 18.0114 12.2017 17.7472C12.071 17.4801 12.0057 17.1875 12.0057 16.8693ZM12.875 16.4091V16.8693C12.875 17.1335 12.9375 17.3707 13.0625 17.581C13.1875 17.7884 13.4034 17.892 13.7102 17.892C14.0085 17.892 14.2188 17.7884 14.3409 17.581C14.4659 17.3707 14.5284 17.1335 14.5284 16.8693V16.4091C14.5284 16.1449 14.4688 15.9091 14.3494 15.7017C14.2301 15.4915 14.017 15.3864 13.7102 15.3864C13.4119 15.3864 13.1974 15.4915 13.0668 15.7017C12.9389 15.9091 12.875 16.1449 12.875 16.4091ZM12.3295 23.5L18.3295 14.7727H19.3011L13.3011 23.5H12.3295Z" fill="white"/>
</svg>
