<svg width="21" height="25" viewBox="0 0 21 25" fill="none" xmlns="http://www.w3.org/2000/svg">
<path d="M10.5 24.6939L3.3405 17.5344C1.92451 16.1184 0.96021 14.3143 0.569544 12.3502C0.178879 10.3862 0.379395 8.3504 1.14574 6.5003C1.91208 4.65021 3.20982 3.06891 4.87487 1.95636C6.53991 0.843818 8.49747 0.25 10.5 0.25C12.5025 0.25 14.4601 0.843818 16.1251 1.95636C17.7902 3.06891 19.0879 4.65021 19.8543 6.5003C20.6206 8.3504 20.8211 10.3862 20.4305 12.3502C20.0398 14.3143 19.0755 16.1184 17.6595 17.5344L10.5 24.6939ZM16.0688 15.9437C17.17 14.8423 17.9199 13.4391 18.2237 11.9115C18.5275 10.3839 18.3715 8.80058 17.7755 7.36166C17.1794 5.92274 16.1701 4.69288 14.875 3.8276C13.58 2.96232 12.0575 2.50048 10.5 2.50048C8.94251 2.50048 7.41999 2.96232 6.12497 3.8276C4.82995 4.69288 3.82059 5.92274 3.22453 7.36166C2.62847 8.80058 2.47247 10.3839 2.77626 11.9115C3.08005 13.4391 3.83 14.8423 4.93125 15.9437L10.5 21.5124L16.0688 15.9437V15.9437ZM10.5 12.6249C9.90327 12.6249 9.33097 12.3879 8.90901 11.9659C8.48706 11.5439 8.25 10.9717 8.25 10.3749C8.25 9.77818 8.48706 9.20588 8.90901 8.78392C9.33097 8.36197 9.90327 8.12491 10.5 8.12491C11.0967 8.12491 11.669 8.36197 12.091 8.78392C12.5129 9.20588 12.75 9.77818 12.75 10.3749C12.75 10.9717 12.5129 11.5439 12.091 11.9659C11.669 12.3879 11.0967 12.6249 10.5 12.6249Z" fill="white"/>
</svg>
