<svg width="30" height="28" viewBox="0 0 30 28" fill="none" xmlns="http://www.w3.org/2000/svg">
<path d="M14 6.8C14 7.35228 14.4477 7.8 15 7.8C15.5523 7.8 16 7.35228 16 6.8H14ZM16 2C16 1.44772 15.5523 1 15 1C14.4477 1 14 1.44772 14 2H16ZM14 26C14 26.5523 14.4477 27 15 27C15.5523 27 16 26.5523 16 26H14ZM16 21.2C16 20.6477 15.5523 20.2 15 20.2C14.4477 20.2 14 20.6477 14 21.2H16ZM22.2 13C21.6477 13 21.2 13.4477 21.2 14C21.2 14.5523 21.6477 15 22.2 15V13ZM27 15C27.5523 15 28 14.5523 28 14C28 13.4477 27.5523 13 27 13V15ZM3 13C2.44772 13 2 13.4477 2 14C2 14.5523 2.44772 15 3 15V13ZM7.8 15C8.35228 15 8.8 14.5523 8.8 14C8.8 13.4477 8.35228 13 7.8 13V15ZM23.6 13.9999C23.6 18.7496 19.7496 22.5999 15 22.5999V24.5999C20.8542 24.5999 25.6 19.8541 25.6 13.9999H23.6ZM15 22.5999C10.2503 22.5999 6.4 18.7496 6.4 13.9999H4.4C4.4 19.8541 9.14578 24.5999 15 24.5999V22.5999ZM6.4 13.9999C6.4 9.25028 10.2503 5.39993 15 5.39993V3.39993C9.14578 3.39993 4.4 8.14571 4.4 13.9999H6.4ZM15 5.39993C19.7496 5.39993 23.6 9.25028 23.6 13.9999H25.6C25.6 8.14571 20.8542 3.39993 15 3.39993V5.39993ZM16 6.8V2H14V6.8H16ZM16 26V21.2H14V26H16ZM22.2 15H27V13H22.2V15ZM3 15H7.8V13H3V15ZM17.6 14C17.6 15.4359 16.4359 16.6 15 16.6V18.6C17.5405 18.6 19.6 16.5405 19.6 14H17.6ZM15 16.6C13.5641 16.6 12.4 15.4359 12.4 14H10.4C10.4 16.5405 12.4595 18.6 15 18.6V16.6ZM12.4 14C12.4 12.5641 13.5641 11.4 15 11.4V9.4C12.4595 9.4 10.4 11.4595 10.4 14H12.4ZM15 11.4C16.4359 11.4 17.6 12.5641 17.6 14H19.6C19.6 11.4595 17.5405 9.4 15 9.4V11.4Z" fill="white"/>
</svg>
