<svg width="450" height="450" viewBox="0 0 450 450" fill="none" xmlns="http://www.w3.org/2000/svg">
<g filter="url(#filter0_f_139_67)">
<path d="M239.742 95.7072C212.903 132.137 208.249 181.854 231.925 222.85C255.6 263.846 300.995 284.675 345.972 279.654C336.408 292.635 324.028 303.928 309.109 312.54C252.322 345.317 180.255 326.812 148.143 271.208C116.032 215.604 136.035 143.957 192.823 111.179C207.742 102.568 223.715 97.4966 239.742 95.7072Z" fill="#FFEE94"/>
</g>
<g filter="url(#filter1_i_139_67)">
<path d="M237.239 111.059C212.74 144.313 208.492 189.696 230.104 227.119C251.715 264.541 293.153 283.555 334.21 278.971C325.48 290.82 314.179 301.13 300.56 308.99C248.723 338.911 182.938 322.019 153.625 271.262C124.313 220.505 142.573 155.102 194.41 125.182C208.029 117.322 222.61 112.692 237.239 111.059Z" fill="url(#paint0_linear_139_67)"/>
</g>
<defs>
<filter id="filter0_f_139_67" x="79.8218" y="42.7072" width="319.15" height="339.042" filterUnits="userSpaceOnUse" color-interpolation-filters="sRGB">
<feFlood flood-opacity="0" result="BackgroundImageFix"/>
<feBlend mode="normal" in="SourceGraphic" in2="BackgroundImageFix" result="shape"/>
<feGaussianBlur stdDeviation="26.5" result="effect1_foregroundBlur_139_67"/>
</filter>
<filter id="filter1_i_139_67" x="139.639" y="111.059" width="194.57" height="216.728" filterUnits="userSpaceOnUse" color-interpolation-filters="sRGB">
<feFlood flood-opacity="0" result="BackgroundImageFix"/>
<feBlend mode="normal" in="SourceGraphic" in2="BackgroundImageFix" result="shape"/>
<feColorMatrix in="SourceAlpha" type="matrix" values="0 0 0 0 0 0 0 0 0 0 0 0 0 0 0 0 0 0 127 0" result="hardAlpha"/>
<feOffset dy="4"/>
<feGaussianBlur stdDeviation="4"/>
<feComposite in2="hardAlpha" operator="arithmetic" k2="-1" k3="1"/>
<feColorMatrix type="matrix" values="0 0 0 0 1 0 0 0 0 1 0 0 0 0 1 0 0 0 0.55 0"/>
<feBlend mode="normal" in2="shape" result="effect1_innerShadow_139_67"/>
</filter>
<linearGradient id="paint0_linear_139_67" x1="242.574" y1="93.4228" x2="203.701" y2="328.863" gradientUnits="userSpaceOnUse">
<stop stop-color="#FFEE94"/>
<stop offset="1" stop-color="#FF9900"/>
</linearGradient>
</defs>
</svg>
