<svg width="450" height="450" viewBox="0 0 450 450" fill="none" xmlns="http://www.w3.org/2000/svg">
<g filter="url(#filter0_f_138_60)">
<path d="M247.442 98.1683C222.27 132.345 217.905 178.987 240.11 217.447C262.315 255.907 304.891 275.448 347.074 270.737C338.105 282.915 326.494 293.51 312.501 301.589C259.241 332.339 191.65 314.979 161.532 262.814C131.415 210.649 150.176 143.434 203.437 112.684C217.429 104.605 232.411 99.847 247.442 98.1683Z" fill="#FFEE94"/>
</g>
<g filter="url(#filter1_i_138_60)">
<path d="M245.095 112.57C222.117 143.768 218.133 186.344 238.402 221.452C258.672 256.559 297.536 274.397 336.043 270.096C327.855 281.213 317.256 290.885 304.483 298.259C255.865 326.329 194.166 310.482 166.674 262.864C139.182 215.246 156.308 153.89 204.926 125.82C217.698 118.446 231.374 114.103 245.095 112.57Z" fill="url(#paint0_linear_138_60)"/>
</g>
<g filter="url(#filter3_i_138_60)">
<path d="M329.02 262.114C329.662 258.474 329.996 254.729 329.996 250.907C329.996 215.152 300.741 186.168 264.653 186.168C237.825 186.168 214.773 202.187 204.709 225.097C196.557 218.124 185.978 213.913 174.417 213.913C148.64 213.913 127.744 234.847 127.744 260.669C127.744 262.107 127.809 263.53 127.935 264.935C115.537 270.952 107 283.577 107 298.177C107 318.608 123.717 335.171 144.339 335.171H320.661C341.283 335.171 358 318.608 358 298.177C358 280.593 345.618 265.875 329.02 262.114Z" fill="url(#paint1_linear_138_60)"/>
</g>
<defs>
<filter id="filter0_f_138_60" x="94.1624" y="45.1683" width="305.912" height="324.627" filterUnits="userSpaceOnUse" color-interpolation-filters="sRGB">
<feFlood flood-opacity="0" result="BackgroundImageFix"/>
<feBlend mode="normal" in="SourceGraphic" in2="BackgroundImageFix" result="shape"/>
<feGaussianBlur stdDeviation="26.5" result="effect1_foregroundBlur_138_60"/>
</filter>
<filter id="filter1_i_138_60" x="153.556" y="112.57" width="182.486" height="203.57" filterUnits="userSpaceOnUse" color-interpolation-filters="sRGB">
<feFlood flood-opacity="0" result="BackgroundImageFix"/>
<feBlend mode="normal" in="SourceGraphic" in2="BackgroundImageFix" result="shape"/>
<feColorMatrix in="SourceAlpha" type="matrix" values="0 0 0 0 0 0 0 0 0 0 0 0 0 0 0 0 0 0 127 0" result="hardAlpha"/>
<feOffset dy="4"/>
<feGaussianBlur stdDeviation="4"/>
<feComposite in2="hardAlpha" operator="arithmetic" k2="-1" k3="1"/>
<feColorMatrix type="matrix" values="0 0 0 0 1 0 0 0 0 1 0 0 0 0 1 0 0 0 0.55 0"/>
<feBlend mode="normal" in2="shape" result="effect1_innerShadow_138_60"/>
</filter>
<filter id="filter3_i_138_60" x="107" y="186.168" width="251" height="159.004" filterUnits="userSpaceOnUse" color-interpolation-filters="sRGB">
<feFlood flood-opacity="0" result="BackgroundImageFix"/>
<feBlend mode="normal" in="SourceGraphic" in2="BackgroundImageFix" result="shape"/>
<feColorMatrix in="SourceAlpha" type="matrix" values="0 0 0 0 0 0 0 0 0 0 0 0 0 0 0 0 0 0 127 0" result="hardAlpha"/>
<feOffset dy="11"/>
<feGaussianBlur stdDeviation="5"/>
<feComposite in2="hardAlpha" operator="arithmetic" k2="-1" k3="1"/>
<feColorMatrix type="matrix" values="0 0 0 0 1 0 0 0 0 1 0 0 0 0 1 0 0 0 1 0"/>
<feBlend mode="normal" in2="shape" result="effect1_innerShadow_138_60"/>
</filter>
<linearGradient id="paint0_linear_138_60" x1="250.098" y1="96.0252" x2="213.62" y2="316.9" gradientUnits="userSpaceOnUse">
<stop stop-color="#FFEE94"/>
<stop offset="1" stop-color="#FF9900"/>
</linearGradient>
<linearGradient id="paint1_linear_138_60" x1="122.965" y1="321.867" x2="376.182" y2="132.509" gradientUnits="userSpaceOnUse">
<stop stop-color="white"/>
<stop offset="1" stop-color="white" stop-opacity="0.58"/>
</linearGradient>
</defs>
</svg>
