<svg width="313" height="332" viewBox="0 0 313 332" fill="none" xmlns="http://www.w3.org/2000/svg">
<g filter="url(#filter0_f_103_9)">
<path d="M156.578 53.4089C130.665 88.592 126.172 136.607 149.031 176.2C171.89 215.793 215.719 235.91 259.145 231.06C249.912 243.597 237.958 254.504 223.554 262.82C168.725 294.476 99.1427 276.605 68.1383 222.904C37.134 169.203 56.4479 100.007 111.277 68.3516C125.682 60.0352 141.104 55.1371 156.578 53.4089Z" fill="#FFEE94"/>
</g>
<g filter="url(#filter1_i_103_9)">
<path d="M154.162 68.2349C130.508 100.351 126.406 144.181 147.273 180.323C168.139 216.465 208.148 234.828 247.789 230.401C239.36 241.844 228.448 251.801 215.3 259.393C165.25 288.289 101.733 271.975 73.4312 222.955C45.1294 173.935 62.7598 110.771 112.81 81.8751C125.959 74.2836 140.037 69.8124 154.162 68.2349Z" fill="url(#paint0_linear_103_9)"/>
</g>
<g filter="url(#filter3_i_103_9)">
<path d="M262.326 229.629C263.049 225.524 263.426 221.302 263.426 216.993C263.426 176.68 230.441 144 189.752 144C159.503 144 133.512 162.061 122.166 187.893C112.974 180.03 101.047 175.283 88.0124 175.283C58.949 175.283 35.3884 198.885 35.3884 228C35.3884 229.621 35.4615 231.225 35.6045 232.809C21.6255 239.593 12 253.828 12 270.29C12 293.326 30.8484 312 54.0992 312H252.901C276.152 312 295 293.326 295 270.29C295 250.464 281.039 233.869 262.326 229.629Z" fill="url(#paint1_linear_103_9)"/>
</g>
<defs>
<filter id="filter0_f_103_9" x="0.345207" y="0.408936" width="311.8" height="331.066" filterUnits="userSpaceOnUse" color-interpolation-filters="sRGB">
<feFlood flood-opacity="0" result="BackgroundImageFix"/>
<feBlend mode="normal" in="SourceGraphic" in2="BackgroundImageFix" result="shape"/>
<feGaussianBlur stdDeviation="26.5" result="effect1_foregroundBlur_103_9"/>
</filter>
<filter id="filter1_i_103_9" x="59.9276" y="68.2349" width="187.861" height="209.448" filterUnits="userSpaceOnUse" color-interpolation-filters="sRGB">
<feFlood flood-opacity="0" result="BackgroundImageFix"/>
<feBlend mode="normal" in="SourceGraphic" in2="BackgroundImageFix" result="shape"/>
<feColorMatrix in="SourceAlpha" type="matrix" values="0 0 0 0 0 0 0 0 0 0 0 0 0 0 0 0 0 0 127 0" result="hardAlpha"/>
<feOffset dy="4"/>
<feGaussianBlur stdDeviation="4"/>
<feComposite in2="hardAlpha" operator="arithmetic" k2="-1" k3="1"/>
<feColorMatrix type="matrix" values="0 0 0 0 1 0 0 0 0 1 0 0 0 0 1 0 0 0 0.55 0"/>
<feBlend mode="normal" in2="shape" result="effect1_innerShadow_103_9"/>
</filter>
<filter id="filter3_i_103_9" x="12" y="144" width="283" height="178" filterUnits="userSpaceOnUse" color-interpolation-filters="sRGB">
<feFlood flood-opacity="0" result="BackgroundImageFix"/>
<feBlend mode="normal" in="SourceGraphic" in2="BackgroundImageFix" result="shape"/>
<feColorMatrix in="SourceAlpha" type="matrix" values="0 0 0 0 0 0 0 0 0 0 0 0 0 0 0 0 0 0 127 0" result="hardAlpha"/>
<feOffset dy="11"/>
<feGaussianBlur stdDeviation="5"/>
<feComposite in2="hardAlpha" operator="arithmetic" k2="-1" k3="1"/>
<feColorMatrix type="matrix" values="0 0 0 0 1 0 0 0 0 1 0 0 0 0 1 0 0 0 1 0"/>
<feBlend mode="normal" in2="shape" result="effect1_innerShadow_103_9"/>
</filter>
<linearGradient id="paint0_linear_103_9" x1="159.313" y1="51.2027" x2="121.761" y2="278.582" gradientUnits="userSpaceOnUse">
<stop stop-color="#FFEE94"/>
<stop offset="1" stop-color="#FF9900"/>
</linearGradient>
<linearGradient id="paint1_linear_103_9" x1="30" y1="297" x2="315.5" y2="83.5" gradientUnits="userSpaceOnUse">
<stop stop-color="white"/>
<stop offset="1" stop-color="white" stop-opacity="0.58"/>
</linearGradient>
</defs>
</svg>
