<svg width="396" height="421" viewBox="0 0 396 421" fill="none" xmlns="http://www.w3.org/2000/svg">
<g filter="url(#filter0_f_103_21)">
<path d="M195.578 53.4089C169.665 88.592 165.172 136.607 188.031 176.2C210.89 215.793 254.719 235.91 298.145 231.06C288.912 243.597 276.958 254.504 262.554 262.82C207.725 294.476 138.143 276.605 107.138 222.904C76.134 169.203 95.4479 100.007 150.277 68.3516C164.682 60.0352 180.104 55.1371 195.578 53.4089Z" fill="#FFEE94"/>
</g>
<g filter="url(#filter1_i_103_21)">
<path d="M193.162 68.2349C169.508 100.351 165.406 144.181 186.273 180.323C207.139 216.465 247.148 234.828 286.789 230.401C278.36 241.844 267.448 251.801 254.3 259.393C204.25 288.289 140.733 271.975 112.431 222.955C84.1294 173.935 101.76 110.771 151.81 81.8751C164.959 74.2836 179.037 69.8124 193.162 68.2349Z" fill="url(#paint0_linear_103_21)"/>
</g>
<g filter="url(#filter3_i_103_21)">
<path d="M301.326 230.629C302.049 226.524 302.426 222.302 302.426 217.993C302.426 177.68 269.441 145 228.752 145C198.503 145 172.512 163.061 161.166 188.893C151.974 181.03 140.047 176.283 127.012 176.283C97.949 176.283 74.3884 199.885 74.3884 229C74.3884 230.621 74.4615 232.225 74.6045 233.809C60.6255 240.593 51 254.828 51 271.29C51 294.326 69.8485 313 93.0992 313H291.901C315.152 313 334 294.326 334 271.29C334 251.464 320.039 234.869 301.326 230.629Z" fill="url(#paint1_linear_103_21)"/>
</g>
<g filter="url(#filter4_di_103_21)">
<path d="M195.5 343C183.049 359.333 165.617 392 195.5 392C225.383 392 207.951 359.333 195.5 343Z" fill="#00BCFF"/>
</g>
<g filter="url(#filter5_di_103_21)">
<path d="M260.5 319C248.049 335.333 230.617 368 260.5 368C290.383 368 272.951 335.333 260.5 319Z" fill="#00BCFF"/>
</g>
<g filter="url(#filter6_f_103_21)">
<rect x="78" y="278" width="240" height="35" rx="17.5" fill="#00BCFF"/>
</g>
<g filter="url(#filter7_di_103_21)">
<path d="M125.5 319C113.049 335.333 95.6169 368 125.5 368C155.383 368 137.951 335.333 125.5 319Z" fill="#00BCFF"/>
</g>
<defs>
<filter id="filter0_f_103_21" x="39.3452" y="0.408936" width="311.8" height="331.066" filterUnits="userSpaceOnUse" color-interpolation-filters="sRGB">
<feFlood flood-opacity="0" result="BackgroundImageFix"/>
<feBlend mode="normal" in="SourceGraphic" in2="BackgroundImageFix" result="shape"/>
<feGaussianBlur stdDeviation="26.5" result="effect1_foregroundBlur_103_21"/>
</filter>
<filter id="filter1_i_103_21" x="98.9276" y="68.2349" width="187.861" height="209.448" filterUnits="userSpaceOnUse" color-interpolation-filters="sRGB">
<feFlood flood-opacity="0" result="BackgroundImageFix"/>
<feBlend mode="normal" in="SourceGraphic" in2="BackgroundImageFix" result="shape"/>
<feColorMatrix in="SourceAlpha" type="matrix" values="0 0 0 0 0 0 0 0 0 0 0 0 0 0 0 0 0 0 127 0" result="hardAlpha"/>
<feOffset dy="4"/>
<feGaussianBlur stdDeviation="4"/>
<feComposite in2="hardAlpha" operator="arithmetic" k2="-1" k3="1"/>
<feColorMatrix type="matrix" values="0 0 0 0 1 0 0 0 0 1 0 0 0 0 1 0 0 0 0.55 0"/>
<feBlend mode="normal" in2="shape" result="effect1_innerShadow_103_21"/>
</filter>
<filter id="filter3_i_103_21" x="51" y="145" width="283" height="178" filterUnits="userSpaceOnUse" color-interpolation-filters="sRGB">
<feFlood flood-opacity="0" result="BackgroundImageFix"/>
<feBlend mode="normal" in="SourceGraphic" in2="BackgroundImageFix" result="shape"/>
<feColorMatrix in="SourceAlpha" type="matrix" values="0 0 0 0 0 0 0 0 0 0 0 0 0 0 0 0 0 0 127 0" result="hardAlpha"/>
<feOffset dy="11"/>
<feGaussianBlur stdDeviation="5"/>
<feComposite in2="hardAlpha" operator="arithmetic" k2="-1" k3="1"/>
<feColorMatrix type="matrix" values="0 0 0 0 1 0 0 0 0 1 0 0 0 0 1 0 0 0 1 0"/>
<feBlend mode="normal" in2="shape" result="effect1_innerShadow_103_21"/>
</filter>
<filter id="filter4_di_103_21" x="160" y="334" width="71" height="87" filterUnits="userSpaceOnUse" color-interpolation-filters="sRGB">
<feFlood flood-opacity="0" result="BackgroundImageFix"/>
<feColorMatrix in="SourceAlpha" type="matrix" values="0 0 0 0 0 0 0 0 0 0 0 0 0 0 0 0 0 0 127 0" result="hardAlpha"/>
<feOffset dy="10"/>
<feGaussianBlur stdDeviation="9.5"/>
<feComposite in2="hardAlpha" operator="out"/>
<feColorMatrix type="matrix" values="0 0 0 0 0.239436 0 0 0 0 0.45219 0 0 0 0 0.794444 0 0 0 0.5 0"/>
<feBlend mode="normal" in2="BackgroundImageFix" result="effect1_dropShadow_103_21"/>
<feBlend mode="normal" in="SourceGraphic" in2="effect1_dropShadow_103_21" result="shape"/>
<feColorMatrix in="SourceAlpha" type="matrix" values="0 0 0 0 0 0 0 0 0 0 0 0 0 0 0 0 0 0 127 0" result="hardAlpha"/>
<feOffset dx="-5" dy="-1"/>
<feGaussianBlur stdDeviation="1.5"/>
<feComposite in2="hardAlpha" operator="arithmetic" k2="-1" k3="1"/>
<feColorMatrix type="matrix" values="0 0 0 0 1 0 0 0 0 1 0 0 0 0 1 0 0 0 0.5 0"/>
<feBlend mode="normal" in2="shape" result="effect2_innerShadow_103_21"/>
</filter>
<filter id="filter5_di_103_21" x="225" y="310" width="71" height="87" filterUnits="userSpaceOnUse" color-interpolation-filters="sRGB">
<feFlood flood-opacity="0" result="BackgroundImageFix"/>
<feColorMatrix in="SourceAlpha" type="matrix" values="0 0 0 0 0 0 0 0 0 0 0 0 0 0 0 0 0 0 127 0" result="hardAlpha"/>
<feOffset dy="10"/>
<feGaussianBlur stdDeviation="9.5"/>
<feComposite in2="hardAlpha" operator="out"/>
<feColorMatrix type="matrix" values="0 0 0 0 0.239436 0 0 0 0 0.45219 0 0 0 0 0.794444 0 0 0 0.5 0"/>
<feBlend mode="normal" in2="BackgroundImageFix" result="effect1_dropShadow_103_21"/>
<feBlend mode="normal" in="SourceGraphic" in2="effect1_dropShadow_103_21" result="shape"/>
<feColorMatrix in="SourceAlpha" type="matrix" values="0 0 0 0 0 0 0 0 0 0 0 0 0 0 0 0 0 0 127 0" result="hardAlpha"/>
<feOffset dx="-5" dy="-1"/>
<feGaussianBlur stdDeviation="1.5"/>
<feComposite in2="hardAlpha" operator="arithmetic" k2="-1" k3="1"/>
<feColorMatrix type="matrix" values="0 0 0 0 1 0 0 0 0 1 0 0 0 0 1 0 0 0 0.5 0"/>
<feBlend mode="normal" in2="shape" result="effect2_innerShadow_103_21"/>
</filter>
<filter id="filter6_f_103_21" x="0" y="200" width="396" height="191" filterUnits="userSpaceOnUse" color-interpolation-filters="sRGB">
<feFlood flood-opacity="0" result="BackgroundImageFix"/>
<feBlend mode="normal" in="SourceGraphic" in2="BackgroundImageFix" result="shape"/>
<feGaussianBlur stdDeviation="39" result="effect1_foregroundBlur_103_21"/>
</filter>
<filter id="filter7_di_103_21" x="90" y="310" width="71" height="87" filterUnits="userSpaceOnUse" color-interpolation-filters="sRGB">
<feFlood flood-opacity="0" result="BackgroundImageFix"/>
<feColorMatrix in="SourceAlpha" type="matrix" values="0 0 0 0 0 0 0 0 0 0 0 0 0 0 0 0 0 0 127 0" result="hardAlpha"/>
<feOffset dy="10"/>
<feGaussianBlur stdDeviation="9.5"/>
<feComposite in2="hardAlpha" operator="out"/>
<feColorMatrix type="matrix" values="0 0 0 0 0.239436 0 0 0 0 0.45219 0 0 0 0 0.794444 0 0 0 0.5 0"/>
<feBlend mode="normal" in2="BackgroundImageFix" result="effect1_dropShadow_103_21"/>
<feBlend mode="normal" in="SourceGraphic" in2="effect1_dropShadow_103_21" result="shape"/>
<feColorMatrix in="SourceAlpha" type="matrix" values="0 0 0 0 0 0 0 0 0 0 0 0 0 0 0 0 0 0 127 0" result="hardAlpha"/>
<feOffset dx="-5" dy="-1"/>
<feGaussianBlur stdDeviation="1.5"/>
<feComposite in2="hardAlpha" operator="arithmetic" k2="-1" k3="1"/>
<feColorMatrix type="matrix" values="0 0 0 0 1 0 0 0 0 1 0 0 0 0 1 0 0 0 0.5 0"/>
<feBlend mode="normal" in2="shape" result="effect2_innerShadow_103_21"/>
</filter>
<linearGradient id="paint0_linear_103_21" x1="198.313" y1="51.2027" x2="160.761" y2="278.582" gradientUnits="userSpaceOnUse">
<stop stop-color="#FFEE94"/>
<stop offset="1" stop-color="#FF9900"/>
</linearGradient>
<linearGradient id="paint1_linear_103_21" x1="69" y1="298" x2="354.5" y2="84.5" gradientUnits="userSpaceOnUse">
<stop stop-color="white"/>
<stop offset="1" stop-color="white" stop-opacity="0.58"/>
</linearGradient>
</defs>
</svg>
