<svg width="450" height="450" viewBox="0 0 450 450" fill="none" xmlns="http://www.w3.org/2000/svg">
<g filter="url(#filter0_f_139_71)">
<path d="M230.351 94.8632C203.044 131.947 198.309 182.556 222.397 224.287C246.485 266.019 292.671 287.222 338.431 282.11C328.701 295.324 316.105 306.821 300.927 315.586C243.15 348.952 169.827 330.115 137.156 273.513C104.485 216.912 124.837 143.979 182.614 110.613C197.793 101.847 214.045 96.6847 230.351 94.8632Z" fill="#FFEE94"/>
</g>
<g filter="url(#filter1_i_139_71)">
<path d="M227.805 110.49C202.879 144.341 198.556 190.539 220.545 228.633C242.533 266.727 284.692 286.081 326.464 281.415C317.582 293.477 306.084 303.972 292.229 311.973C239.488 342.431 172.557 325.236 142.734 273.568C112.91 221.9 131.489 155.324 184.229 124.867C198.085 116.865 212.92 112.153 227.805 110.49Z" fill="url(#paint0_linear_139_71)"/>
</g>
<g filter="url(#filter2_i_139_71)">
<path d="M325.661 285.177C326.126 282.602 326.369 279.953 326.369 277.249C326.369 251.957 305.121 231.454 278.911 231.454C259.425 231.454 242.683 242.786 235.374 258.992C229.453 254.059 221.769 251.081 213.373 251.081C194.651 251.081 179.474 265.889 179.474 284.155C179.474 285.172 179.521 286.179 179.613 287.172C170.609 291.428 164.408 300.359 164.408 310.687C164.408 325.14 176.55 336.856 191.527 336.856H319.589C334.567 336.856 346.708 325.14 346.708 310.687C346.708 298.249 337.715 287.837 325.661 285.177Z" fill="url(#paint1_linear_139_71)"/>
</g>
<defs>
<filter id="filter0_f_139_71" x="68.5679" y="41.8632" width="322.863" height="343.223" filterUnits="userSpaceOnUse" color-interpolation-filters="sRGB">
<feFlood flood-opacity="0" result="BackgroundImageFix"/>
<feBlend mode="normal" in="SourceGraphic" in2="BackgroundImageFix" result="shape"/>
<feGaussianBlur stdDeviation="26.5" result="effect1_foregroundBlur_139_71"/>
</filter>
<filter id="filter1_i_139_71" x="128.504" y="110.49" width="197.96" height="220.545" filterUnits="userSpaceOnUse" color-interpolation-filters="sRGB">
<feFlood flood-opacity="0" result="BackgroundImageFix"/>
<feBlend mode="normal" in="SourceGraphic" in2="BackgroundImageFix" result="shape"/>
<feColorMatrix in="SourceAlpha" type="matrix" values="0 0 0 0 0 0 0 0 0 0 0 0 0 0 0 0 0 0 127 0" result="hardAlpha"/>
<feOffset dy="4"/>
<feGaussianBlur stdDeviation="4"/>
<feComposite in2="hardAlpha" operator="arithmetic" k2="-1" k3="1"/>
<feColorMatrix type="matrix" values="0 0 0 0 1 0 0 0 0 1 0 0 0 0 1 0 0 0 0.55 0"/>
<feBlend mode="normal" in2="shape" result="effect1_innerShadow_139_71"/>
</filter>
<filter id="filter2_i_139_71" x="164.408" y="231.454" width="182.3" height="115.402" filterUnits="userSpaceOnUse" color-interpolation-filters="sRGB">
<feFlood flood-opacity="0" result="BackgroundImageFix"/>
<feBlend mode="normal" in="SourceGraphic" in2="BackgroundImageFix" result="shape"/>
<feColorMatrix in="SourceAlpha" type="matrix" values="0 0 0 0 0 0 0 0 0 0 0 0 0 0 0 0 0 0 127 0" result="hardAlpha"/>
<feOffset dy="11"/>
<feGaussianBlur stdDeviation="5"/>
<feComposite in2="hardAlpha" operator="arithmetic" k2="-1" k3="1"/>
<feColorMatrix type="matrix" values="0 0 0 0 1 0 0 0 0 1 0 0 0 0 1 0 0 0 1 0"/>
<feBlend mode="normal" in2="shape" result="effect1_innerShadow_139_71"/>
</filter>
<linearGradient id="paint0_linear_139_71" x1="233.232" y1="92.5377" x2="193.642" y2="332.197" gradientUnits="userSpaceOnUse">
<stop stop-color="#FFEE94"/>
<stop offset="1" stop-color="#FF9900"/>
</linearGradient>
<linearGradient id="paint1_linear_139_71" x1="176.003" y1="327.445" x2="356.407" y2="188.929" gradientUnits="userSpaceOnUse">
<stop stop-color="white"/>
<stop offset="1" stop-color="white" stop-opacity="0.58"/>
</linearGradient>
</defs>
</svg>
