<svg width="450" height="450" viewBox="0 0 450 450" fill="none" xmlns="http://www.w3.org/2000/svg">
<g filter="url(#filter0_i_139_66)">
<path d="M363.589 155.005C363.93 153.076 364.108 151.092 364.108 149.067C364.108 130.12 348.55 114.76 329.359 114.76C315.092 114.76 302.833 123.249 297.481 135.39C293.146 131.694 287.52 129.463 281.372 129.463C267.664 129.463 256.551 140.556 256.551 154.24C256.551 155.002 256.586 155.756 256.653 156.5C250.06 159.689 245.52 166.379 245.52 174.116C245.52 184.943 254.41 193.72 265.377 193.72H359.143C370.11 193.72 379 184.943 379 174.116C379 164.798 372.415 156.998 363.589 155.005Z" fill="url(#paint0_linear_139_66)"/>
</g>
<g filter="url(#filter1_f_139_66)">
<rect x="117.68" y="111" width="225.6" height="212.44" rx="94" fill="#FFEF9A"/>
</g>
<g filter="url(#filter2_i_139_66)">
<path d="M330.12 217.22C330.12 272.769 285.51 317.8 230.48 317.8C175.45 317.8 130.84 272.769 130.84 217.22C130.84 161.671 175.45 116.64 230.48 116.64C285.51 116.64 330.12 161.671 330.12 217.22Z" fill="url(#paint1_linear_139_66)"/>
</g>
<g filter="url(#filter3_i_139_66)">
<path d="M215.069 294.125C215.41 292.196 215.588 290.212 215.588 288.187C215.588 269.24 200.03 253.88 180.839 253.88C166.572 253.88 154.313 262.369 148.961 274.51C144.626 270.814 139 268.583 132.852 268.583C119.144 268.583 108.031 279.676 108.031 293.36C108.031 294.122 108.066 294.876 108.133 295.62C101.54 298.809 97 305.499 97 313.236C97 324.063 105.89 332.84 116.857 332.84H210.623C221.59 332.84 230.48 324.063 230.48 313.236C230.48 303.918 223.895 296.118 215.069 294.125Z" fill="url(#paint2_linear_139_66)"/>
</g>
<defs>
<filter id="filter0_i_139_66" x="245.52" y="114.76" width="133.48" height="88.96" filterUnits="userSpaceOnUse" color-interpolation-filters="sRGB">
<feFlood flood-opacity="0" result="BackgroundImageFix"/>
<feBlend mode="normal" in="SourceGraphic" in2="BackgroundImageFix" result="shape"/>
<feColorMatrix in="SourceAlpha" type="matrix" values="0 0 0 0 0 0 0 0 0 0 0 0 0 0 0 0 0 0 127 0" result="hardAlpha"/>
<feOffset dy="11"/>
<feGaussianBlur stdDeviation="5"/>
<feComposite in2="hardAlpha" operator="arithmetic" k2="-1" k3="1"/>
<feColorMatrix type="matrix" values="0 0 0 0 1 0 0 0 0 1 0 0 0 0 1 0 0 0 1 0"/>
<feBlend mode="normal" in2="shape" result="effect1_innerShadow_139_66"/>
</filter>
<filter id="filter1_f_139_66" x="40.68" y="34" width="379.6" height="366.44" filterUnits="userSpaceOnUse" color-interpolation-filters="sRGB">
<feFlood flood-opacity="0" result="BackgroundImageFix"/>
<feBlend mode="normal" in="SourceGraphic" in2="BackgroundImageFix" result="shape"/>
<feGaussianBlur stdDeviation="38.5" result="effect1_foregroundBlur_139_66"/>
</filter>
<filter id="filter2_i_139_66" x="130.84" y="116.64" width="199.28" height="206.16" filterUnits="userSpaceOnUse" color-interpolation-filters="sRGB">
<feFlood flood-opacity="0" result="BackgroundImageFix"/>
<feBlend mode="normal" in="SourceGraphic" in2="BackgroundImageFix" result="shape"/>
<feColorMatrix in="SourceAlpha" type="matrix" values="0 0 0 0 0 0 0 0 0 0 0 0 0 0 0 0 0 0 127 0" result="hardAlpha"/>
<feOffset dy="5"/>
<feGaussianBlur stdDeviation="9"/>
<feComposite in2="hardAlpha" operator="arithmetic" k2="-1" k3="1"/>
<feColorMatrix type="matrix" values="0 0 0 0 1 0 0 0 0 1 0 0 0 0 1 0 0 0 0.81 0"/>
<feBlend mode="normal" in2="shape" result="effect1_innerShadow_139_66"/>
</filter>
<filter id="filter3_i_139_66" x="97" y="253.88" width="133.48" height="88.96" filterUnits="userSpaceOnUse" color-interpolation-filters="sRGB">
<feFlood flood-opacity="0" result="BackgroundImageFix"/>
<feBlend mode="normal" in="SourceGraphic" in2="BackgroundImageFix" result="shape"/>
<feColorMatrix in="SourceAlpha" type="matrix" values="0 0 0 0 0 0 0 0 0 0 0 0 0 0 0 0 0 0 127 0" result="hardAlpha"/>
<feOffset dy="11"/>
<feGaussianBlur stdDeviation="5"/>
<feComposite in2="hardAlpha" operator="arithmetic" k2="-1" k3="1"/>
<feColorMatrix type="matrix" values="0 0 0 0 1 0 0 0 0 1 0 0 0 0 1 0 0 0 1 0"/>
<feBlend mode="normal" in2="shape" result="effect1_innerShadow_139_66"/>
</filter>
<linearGradient id="paint0_linear_139_66" x1="254.01" y1="186.67" x2="388.328" y2="85.8705" gradientUnits="userSpaceOnUse">
<stop stop-color="white"/>
<stop offset="1" stop-color="white" stop-opacity="0.58"/>
</linearGradient>
<linearGradient id="paint1_linear_139_66" x1="215.345" y1="271.966" x2="298.494" y2="127.497" gradientUnits="userSpaceOnUse">
<stop stop-color="#FF9900"/>
<stop offset="1" stop-color="#FFEE94"/>
</linearGradient>
<linearGradient id="paint2_linear_139_66" x1="105.49" y1="325.79" x2="239.808" y2="224.991" gradientUnits="userSpaceOnUse">
<stop stop-color="white"/>
<stop offset="1" stop-color="white" stop-opacity="0.58"/>
</linearGradient>
</defs>
</svg>
